<?xml version="1.0" encoding="utf-8" ?>
<svg baseProfile="tiny" height="865" version="1.2" width="1122" xmlns="http://www.w3.org/2000/svg" xmlns:ev="http://www.w3.org/2001/xml-events" xmlns:xlink="http://www.w3.org/1999/xlink"><defs /><polyline fill="none" points="837,696 837,731 862,731 862,728 842,728 841,727 841,716 842,715 860,715 861,714 861,713 860,712 842,712 841,711 841,700 842,699 861,699 861,696" stroke="black" stroke-width="1" /><polyline fill="none" points="806,696 805,697 805,731 808,731 809,730 809,719 810,718 817,718 820,721 820,722 829,731 833,731 833,729 823,719 825,717 827,717 832,712 832,709 833,708 833,707 832,706 832,703 831,702 831,701 829,699 829,698 828,698 827,697 826,697 825,696" stroke="black" stroke-width="1" /><polyline fill="none" points="776,696 775,697 775,730 776,731 800,731 800,728 779,728 778,727 778,716 779,715 798,715 798,712 779,712 778,711 778,700 779,699 799,699 799,696" stroke="black" stroke-width="1" /><polyline fill="none" points="741,696 740,697 740,731 743,731 743,717 744,716 763,716 764,717 764,730 765,731 768,731 768,696 765,696 765,697 764,698 764,711 763,712 744,712 743,711 743,696" stroke="black" stroke-width="1" /><polyline fill="none" points="663,696 663,699 674,699 675,700 675,729 676,730 676,731 678,731 678,700 679,699 690,699 690,696" stroke="black" stroke-width="1" /><polyline fill="none" points="633,696 632,697 632,731 634,731 635,730 635,719 636,718 643,718 654,729 654,730 655,731 659,731 659,729 657,727 657,726 654,723 653,723 652,722 652,721 651,721 649,719 651,717 654,717 658,713 658,701 654,697 651,697 650,696" stroke="black" stroke-width="1" /><polyline fill="none" points="609,696 608,697 608,698 607,699 607,700 606,701 606,702 605,703 605,705 604,706 604,708 603,709 603,710 602,711 602,712 601,713 601,714 600,715 600,717 599,718 599,719 598,720 598,721 597,722 597,723 596,724 596,725 595,726 595,727 593,729 593,731 597,731 598,730 598,729 599,728 599,725 601,723 620,723 622,725 622,727 623,728 623,729 625,731 627,731 627,728 626,727 626,725 625,724 625,723 624,722 624,721 623,720 623,719 622,718 622,716 621,715 621,714 620,713 620,712 619,711 619,710 618,709 618,708 617,707 617,705 616,704 616,703 615,702 615,701 614,700 614,699 613,698 613,697 612,696" stroke="black" stroke-width="1" /><polyline fill="none" points="565,696 565,699 576,699 577,700 577,730 578,731 579,731 580,730 580,700 581,699 592,699 592,696" stroke="black" stroke-width="1" /><polyline fill="none" points="429,696 429,731 453,731 453,728 433,728 432,727 432,716 433,715 452,715 452,713 451,712 433,712 432,711 432,700 433,699 452,699 452,696" stroke="black" stroke-width="1" /><polyline fill="none" points="394,696 394,731 396,731 397,730 397,706 398,705 400,707 400,708 403,711 403,712 411,720 411,721 414,724 414,725 418,729 418,730 419,731 421,731 421,696 419,696 418,697 419,698 418,699 418,721 417,722 416,721 416,720 415,719 414,719 413,718 413,717 410,714 410,713 406,709 406,708 403,705 403,704 395,696" stroke="black" stroke-width="1" /><polyline fill="none" points="367,696 367,730 366,731 389,731 389,728 371,728 370,727 370,697 369,696" stroke="black" stroke-width="1" /><polyline fill="none" points="340,696 339,697 339,730 340,731 362,731 362,728 344,728 343,727 343,697 342,696" stroke="black" stroke-width="1" /><polyline fill="none" points="310,696 309,697 309,730 310,731 334,731 334,728 314,728 313,727 313,716 314,715 333,715 333,713 332,712 314,712 313,711 313,700 314,699 333,699 333,696" stroke="black" stroke-width="1" /><polyline fill="none" points="256,696 256,697 255,698 256,699 256,701 257,702 257,704 258,705 258,706 259,707 259,710 260,711 260,712 261,713 261,715 262,716 262,717 263,718 263,721 264,722 264,723 265,724 265,726 266,727 266,729 267,730 267,731 270,731 271,730 271,729 272,728 272,726 273,725 273,722 274,721 274,719 275,718 275,717 276,716 276,714 277,713 277,710 278,709 278,707 279,706 279,705 280,704 281,705 281,706 282,707 282,709 283,710 283,712 284,713 284,717 285,718 285,719 286,720 286,722 287,723 287,724 288,725 288,728 289,729 289,730 290,731 293,731 293,730 294,729 294,727 295,726 295,725 296,724 296,722 297,721 297,719 298,718 298,716 299,715 299,713 300,712 300,710 301,709 301,707 302,706 302,704 303,703 303,702 304,701 304,699 305,698 305,697 304,696 302,696 301,697 301,699 300,700 300,701 299,702 299,705 298,706 298,708 297,709 297,711 296,712 296,713 295,714 295,717 294,718 294,720 293,721 293,723 291,725 290,724 290,722 289,721 289,718 288,717 288,716 287,715 287,713 286,712 286,710 285,709 285,706 284,705 284,704 283,703 283,701 282,700 282,698 281,697 281,696 280,696 278,698 278,700 277,701 277,703 276,704 276,705 275,706 275,709 274,710 274,712 273,713 273,715 272,716 272,717 271,718 271,721 270,722 270,724 269,725 267,723 267,721 266,720 266,718 265,717 265,714 264,713 264,712 263,711 263,709 262,708 262,706 261,705 261,702 260,701 260,700 259,699 259,697 258,696" stroke="black" stroke-width="1" /><polyline fill="none" points="706,695 705,696 702,696 701,697 699,697 698,698 697,698 695,700 695,702 694,703 694,708 695,709 695,710 698,713 700,713 701,714 707,714 708,715 711,715 712,716 713,716 714,717 715,717 718,720 718,723 713,728 710,728 709,729 706,729 705,728 703,728 702,727 701,727 698,724 697,724 695,722 694,723 693,723 693,725 697,729 698,729 699,730 700,730 701,731 704,731 705,732 710,732 711,731 714,731 715,730 717,730 718,729 719,729 719,728 721,726 721,723 722,722 722,721 721,720 721,717 718,714 717,714 716,713 713,713 712,712 709,712 708,711 705,711 704,710 701,710 698,707 698,703 700,701 701,701 701,700 702,699 706,699 707,698 708,698 709,699 712,699 713,700 714,700 717,703 719,703 720,702 720,700 718,698 717,698 716,697 715,697 714,696 712,696 711,695" stroke="black" stroke-width="1" /><polyline fill="none" points="547,695 546,696 542,696 541,697 539,697 535,701 535,704 534,705 534,706 535,707 535,709 539,713 542,713 543,714 548,714 549,715 551,715 552,716 554,716 559,721 559,722 558,723 558,724 554,728 551,728 550,729 547,729 546,728 543,728 540,725 539,725 536,722 534,724 534,726 537,729 538,729 539,730 541,730 542,731 544,731 545,732 551,732 552,731 555,731 556,730 558,730 561,727 561,725 562,724 562,719 561,718 561,717 560,716 560,715 559,715 558,714 557,714 556,713 554,713 553,712 549,712 548,711 545,711 544,710 543,710 542,709 540,709 539,708 539,707 538,706 538,704 542,700 543,700 544,699 547,699 548,698 549,698 550,699 553,699 557,703 559,703 560,702 560,700 557,697 555,697 554,696 552,696 551,695" stroke="black" stroke-width="1" /><polyline fill="none" points="501,695 500,696 497,696 496,697 494,697 490,701 490,703 489,704 490,705 490,709 494,713 496,713 497,714 502,714 503,715 506,715 507,716 509,716 510,717 511,717 514,720 514,722 513,723 513,725 512,726 511,726 509,728 506,728 505,729 502,729 501,728 498,728 496,726 495,726 492,723 492,722 491,722 490,723 490,727 492,729 493,729 494,730 497,730 498,731 499,731 500,732 507,732 508,731 510,731 511,730 513,730 514,729 515,729 515,728 516,727 516,726 517,725 517,719 516,718 516,717 512,713 509,713 508,712 505,712 504,711 503,711 502,712 501,711 500,711 499,710 498,710 497,709 496,709 493,706 493,704 497,700 498,700 499,699 502,699 503,698 504,698 505,699 508,699 510,701 511,701 513,703 515,703 515,699 514,699 512,697 510,697 509,696 506,696 505,695" stroke="black" stroke-width="1" /><polyline fill="none" points="470,695 469,696 466,696 465,697 463,697 462,698 461,698 461,699 459,701 459,703 458,704 458,706 459,707 459,709 462,712 463,712 464,713 466,713 467,714 471,714 472,715 475,715 476,716 478,716 479,717 480,717 482,719 482,724 478,728 474,728 473,729 471,729 470,728 467,728 464,725 463,725 461,723 461,722 460,723 458,723 458,726 461,729 462,729 463,730 465,730 466,731 468,731 469,732 475,732 476,731 479,731 480,730 481,730 482,729 483,729 484,728 484,727 485,726 485,725 486,724 486,719 485,718 485,717 481,713 478,713 477,712 473,712 472,711 469,711 468,710 467,710 466,709 465,709 462,706 462,704 466,700 467,700 468,699 471,699 472,698 473,698 474,699 477,699 479,701 480,701 482,703 483,703 484,702 484,700 481,697 479,697 478,696 475,696 474,695" stroke="black" stroke-width="1" /><polyline fill="none" points="401,672 400,673 254,673 253,674 253,677 254,678 860,678 861,677 862,677 863,676 863,674 862,673 862,672" stroke="black" stroke-width="1" /><polyline fill="none" points="515,622 515,623 514,624 514,629 515,630 515,631 543,631 544,630 546,630 546,623 545,622" stroke="black" stroke-width="1" /><polyline fill="none" points="779,580 778,581 777,581 777,586 778,587 782,587 783,588 783,628 782,629 782,647 780,649 776,649 775,650 775,652 776,653 776,655 798,655 798,649 794,649 793,648 793,600 794,599 795,600 795,603 796,604 796,607 797,608 797,610 798,611 798,612 799,613 799,616 800,617 800,619 801,620 801,622 802,623 802,624 803,625 803,627 804,628 804,631 805,632 805,634 807,636 807,639 808,640 808,641 809,642 809,644 810,645 810,646 811,647 811,648 814,648 815,649 819,649 820,648 821,648 822,647 823,647 824,646 824,645 825,644 825,642 826,641 826,640 827,639 827,637 828,636 828,634 829,633 829,631 830,630 830,628 831,627 831,626 832,625 832,622 833,621 833,618 834,617 834,615 835,614 835,613 836,612 836,610 837,609 837,604 838,603 838,602 839,601 839,599 840,598 841,599 841,647 839,649 836,649 835,650 835,652 836,653 836,655 860,655 860,649 855,649 854,648 854,639 853,638 853,588 854,587 858,587 859,586 859,581 858,580 837,580 835,582 835,585 834,586 834,589 833,590 833,592 832,593 832,595 831,596 831,601 830,602 830,603 829,604 829,607 828,608 828,609 827,610 827,613 826,614 826,617 825,618 825,620 824,621 824,623 823,624 823,627 822,628 822,630 821,631 821,632 819,634 818,633 818,632 817,631 817,627 816,626 816,624 815,623 815,621 814,620 814,618 813,617 813,615 812,614 812,612 811,611 811,609 810,608 810,605 809,604 809,602 808,601 808,599 807,598 807,596 806,595 806,593 805,592 805,589 804,588 804,585 803,584 803,583 802,582 802,580" stroke="black" stroke-width="1" /><polyline fill="none" points="631,580 630,581 630,586 631,587 636,587 637,588 637,648 636,649 630,649 630,651 629,652 630,653 630,655 658,655 658,649 652,649 650,647 650,626 652,624 659,624 660,625 661,625 662,626 663,626 669,632 669,634 670,635 670,636 671,637 671,638 672,639 672,642 673,643 673,645 674,646 674,648 675,649 675,650 676,651 676,652 677,653 677,654 678,654 679,655 680,655 681,656 685,656 686,657 689,657 690,656 694,656 696,654 696,650 695,649 693,649 692,648 691,648 688,645 688,644 686,642 686,641 685,640 685,639 684,638 684,637 683,636 683,635 682,634 682,632 680,630 680,629 679,628 679,627 676,624 676,623 675,622 674,622 673,621 672,621 671,620 672,619 674,619 675,618 677,618 681,614 682,614 682,613 686,609 686,604 687,603 687,596 686,595 686,592 685,591 685,589 681,585 680,585 679,584 677,584 676,583 674,583 673,582 671,582 670,581 664,581 663,580" stroke="black" stroke-width="1" /><polyline fill="none" points="370,580 369,581 368,581 367,582 367,586 368,586 369,587 373,587 374,588 374,590 375,591 375,647 373,649 368,649 367,650 367,654 368,655 394,655 394,654 395,653 395,652 394,651 394,649 389,649 388,648 388,630 391,627 391,626 395,622 395,621 396,620 397,620 399,622 399,624 400,625 400,626 401,626 402,627 402,628 403,629 403,631 405,633 405,634 406,635 406,636 407,637 407,638 408,639 408,640 410,642 410,643 411,644 411,645 412,646 412,647 413,648 413,649 414,650 414,651 416,653 416,654 417,654 418,655 419,655 420,656 424,656 425,657 429,657 430,656 433,656 435,654 435,651 434,650 434,649 432,649 425,642 425,641 422,638 422,637 419,634 419,633 417,631 417,629 414,626 414,625 412,623 412,622 411,621 411,620 409,618 409,617 407,615 407,614 406,613 406,611 408,609 408,608 409,607 410,607 410,606 414,602 415,602 416,601 416,600 429,587 432,587 433,586 433,585 434,584 433,583 433,581 432,580 412,580 410,582 410,586 411,587 413,587 414,588 413,589 413,590 409,594 409,595 407,597 406,597 405,598 405,599 393,611 393,612 389,616 388,615 388,588 389,587 394,587 394,586 395,585 395,583 394,582 394,580 375,580 374,581 373,580" stroke="black" stroke-width="1" /><polyline fill="none" points="294,580 292,582 292,585 294,587 297,587 298,588 298,589 299,590 299,591 300,592 300,593 302,595 302,596 303,597 303,598 304,599 304,601 307,604 307,607 308,608 308,609 311,612 311,614 312,615 312,616 313,617 313,618 314,619 314,620 315,621 315,622 316,623 316,624 317,625 317,626 319,628 319,630 320,631 320,648 319,649 312,649 312,655 341,655 342,654 342,650 341,649 335,649 333,647 333,632 334,631 334,629 335,628 335,627 336,626 336,624 338,622 338,621 339,620 339,619 340,618 340,616 342,614 342,613 343,612 343,611 345,609 345,606 347,604 347,602 348,601 349,601 348,600 350,598 350,597 351,596 351,595 352,594 352,593 353,592 353,591 354,590 354,589 356,587 359,587 360,586 360,582 359,581 359,580 339,580 338,581 337,581 337,586 338,587 341,587 342,588 341,589 341,591 340,592 340,594 339,595 339,597 338,598 338,600 337,601 337,602 336,603 336,605 335,606 335,608 334,609 334,610 333,611 333,612 332,613 332,614 331,615 331,617 330,618 330,619 328,621 327,620 327,619 325,617 325,615 324,614 324,613 323,612 323,611 322,610 322,608 321,607 321,606 320,605 320,604 319,603 319,602 318,601 318,599 317,598 317,596 316,595 316,594 315,593 315,592 314,591 314,590 313,589 313,588 314,587 317,587 317,586 318,585 318,583 317,582 317,580 296,580 295,581" stroke="black" stroke-width="1" /><polyline fill="none" points="259,580 258,581 257,581 257,586 258,586 259,587 263,587 264,588 264,590 265,591 265,644 264,645 264,648 263,649 258,649 257,650 257,654 258,655 285,655 285,650 284,649 279,649 278,648 278,645 277,644 277,589 279,587 284,587 285,586 285,581 284,580" stroke="black" stroke-width="1" /><polyline fill="none" points="732,579 731,580 730,580 729,581 727,581 727,582 725,584 725,585 724,586 724,589 723,590 723,591 722,592 722,594 721,595 721,597 720,598 720,601 719,602 719,603 718,604 718,606 717,607 717,609 716,610 716,612 715,613 715,615 714,616 714,618 713,619 713,621 712,622 712,625 711,626 711,627 710,628 710,631 709,632 709,634 708,635 708,638 706,640 706,642 705,643 705,645 704,646 704,648 703,649 699,649 698,650 698,655 721,655 722,654 722,651 721,650 721,649 717,649 716,648 716,647 717,646 717,643 718,642 718,637 719,636 719,635 720,634 720,632 721,631 743,631 745,633 745,635 746,636 746,638 747,639 747,641 748,642 748,646 749,647 749,648 748,649 745,649 744,650 744,655 770,655 770,649 766,649 764,647 764,646 763,645 763,643 762,642 762,640 761,639 761,637 760,636 760,635 759,634 759,632 758,631 758,630 757,629 757,626 756,625 756,624 755,623 755,622 754,621 754,618 753,617 753,614 752,613 752,612 751,611 751,610 750,609 750,606 749,605 749,603 748,602 748,600 747,599 747,597 746,596 746,595 745,594 745,592 744,591 744,589 743,588 743,586 742,585 742,584 741,583 741,581 740,580 738,580 737,579 736,580 735,580 734,579 733,580" stroke="black" stroke-width="1" /><polyline fill="none" points="588,579 587,580 582,580 579,583 579,584 578,585 578,586 577,587 577,590 576,591 576,593 575,594 575,596 574,597 574,598 573,599 573,601 572,602 572,605 571,606 571,608 570,609 570,610 569,611 569,614 568,615 568,617 567,618 567,620 566,621 566,622 565,623 565,626 564,627 564,629 563,630 563,632 562,633 562,634 561,635 561,638 560,639 560,641 559,642 559,644 558,645 558,646 557,647 557,648 556,649 552,649 551,650 551,654 552,655 574,655 575,654 575,650 574,649 571,649 570,648 570,645 571,644 571,639 572,638 572,635 573,634 573,633 575,631 596,631 599,634 599,636 600,637 600,639 601,640 601,644 602,645 602,648 601,649 598,649 598,650 597,651 597,652 598,653 598,655 623,655 623,654 624,653 624,651 623,650 623,649 619,649 618,648 618,647 617,646 617,644 616,643 616,642 615,641 615,639 614,638 614,636 613,635 613,634 612,633 612,631 611,630 611,628 610,627 610,625 609,624 609,622 608,621 608,620 607,619 607,617 606,616 606,613 605,612 605,611 604,610 604,608 603,607 603,605 602,604 602,601 600,599 600,597 599,596 599,593 598,592 598,590 597,589 597,588 596,587 596,586 595,585 595,583 594,582 594,581 593,580 589,580" stroke="black" stroke-width="1" /><polyline fill="none" points="471,579 470,580 467,580 465,582 465,583 463,585 463,587 462,588 462,591 461,592 461,594 460,595 460,596 459,597 459,598 458,599 458,602 457,603 457,605 456,606 456,607 455,608 455,611 454,612 454,615 453,616 453,618 452,619 452,620 451,621 451,623 450,624 450,627 449,628 449,630 448,631 448,632 447,633 447,635 446,636 446,639 445,640 445,642 444,643 444,644 443,645 443,647 441,649 437,649 437,655 459,655 460,654 460,651 459,650 459,649 456,649 455,648 455,645 456,644 456,640 457,639 457,636 458,635 458,634 459,633 459,632 460,631 482,631 483,632 483,633 484,634 484,636 485,637 485,639 486,640 486,644 487,645 487,646 488,647 488,648 487,649 484,649 483,650 483,655 508,655 509,654 509,650 508,649 504,649 503,648 503,647 502,646 502,644 501,643 501,642 500,641 500,638 499,637 499,636 498,635 498,633 497,632 497,630 495,628 495,625 494,624 494,622 493,621 493,619 492,618 492,616 491,615 491,613 490,612 490,610 489,609 489,608 488,607 488,605 487,604 487,601 486,600 486,599 485,598 485,596 484,595 484,593 483,592 483,589 481,587 481,585 480,584 480,582 478,580 477,580 476,579 475,580 474,580 473,579" stroke="black" stroke-width="1" /><polyline fill="none" points="202,371 201,372 193,372 193,375 194,375 195,376 205,376 206,377 238,377 239,376 240,376 240,374 229,374 228,373 222,373 221,372 213,372 212,371" stroke="black" stroke-width="1" /><polyline fill="none" points="225,307 224,308 225,309 226,309 227,310 229,310 230,311 233,311 234,312 240,312 241,311 241,310 240,309 237,309 236,308 234,308 233,307 232,308 231,307" stroke="black" stroke-width="1" /><polyline fill="none" points="224,231 224,232 227,235 228,235 229,236 230,236 232,238 233,238 234,239 235,239 236,240 237,240 239,242 240,242 241,243 243,243 245,245 247,245 248,246 249,246 250,247 251,247 252,248 253,248 254,249 256,249 257,250 258,250 259,251 261,251 262,252 264,252 265,253 266,253 267,254 268,254 269,253 269,252 268,251 267,251 266,250 265,250 262,247 261,247 260,246 259,246 257,244 256,244 255,243 254,243 253,242 252,242 251,241 250,241 249,240 248,240 247,239 246,239 244,237 242,237 241,236 239,236 237,234 235,234 234,233 232,233 231,232 229,232 228,231" stroke="black" stroke-width="1" /><polyline fill="none" points="292,188 292,189 293,190 293,192 294,192 295,193 295,194 296,194 300,198 301,198 303,200 304,200 305,201 305,197 304,197 301,194 301,193 299,191 298,191 295,188" stroke="black" stroke-width="1" /><polyline fill="none" points="673,146 672,147 672,148 671,149 671,150 670,151 670,154 671,155 671,161 672,162 672,184 671,185 671,191 670,192 670,196 669,197 669,202 668,203 668,207 667,208 667,211 666,212 666,214 665,215 665,219 664,220 664,224 663,225 663,228 662,229 662,234 661,235 661,256 662,257 662,261 663,262 663,264 662,265 661,264 661,263 654,256 653,256 652,255 651,255 649,253 648,253 647,252 645,252 644,251 634,251 633,250 633,249 632,248 632,246 631,245 631,242 630,241 630,236 629,235 629,233 628,232 628,231 627,230 627,229 626,228 626,225 624,223 624,222 623,221 623,219 622,218 622,216 621,215 621,214 620,213 620,212 619,211 619,210 618,209 618,206 616,204 616,202 615,201 615,200 614,199 614,197 613,196 613,195 611,193 611,191 610,190 610,188 609,187 609,186 608,185 608,184 607,183 607,182 606,181 606,180 605,179 605,178 604,177 604,176 602,174 602,173 599,170 599,169 595,165 594,165 593,164 591,164 590,165 590,166 589,167 589,175 590,176 590,181 591,182 591,184 592,185 592,188 593,189 593,191 594,192 594,194 595,195 595,196 596,197 596,198 595,199 595,200 593,202 593,204 592,205 592,207 591,208 591,209 590,210 590,225 591,226 590,227 589,227 586,224 584,224 583,223 581,223 580,222 579,222 578,221 577,221 576,220 571,220 570,219 564,219 563,218 550,218 549,217 546,217 545,216 542,216 541,215 540,215 538,213 537,213 536,212 535,212 534,211 529,211 529,212 528,213 528,216 527,217 527,218 528,219 528,222 529,223 529,224 532,227 532,228 533,228 534,229 535,229 536,230 537,230 538,231 540,231 541,232 543,232 544,233 548,233 549,234 560,234 562,236 563,236 566,239 567,239 571,243 572,243 576,247 577,247 578,248 579,248 581,250 583,250 585,252 586,252 587,253 585,255 584,255 583,256 582,256 582,257 575,264 575,265 574,266 574,268 573,269 573,271 572,272 572,284 573,285 573,287 575,289 575,290 577,292 578,292 579,293 580,293 581,294 580,295 579,295 578,296 575,296 574,295 573,296 572,296 566,290 566,287 565,286 565,285 563,283 562,283 561,282 554,282 553,283 552,283 551,284 550,284 548,286 547,286 538,295 538,296 536,298 536,299 534,301 534,302 533,303 533,304 532,305 532,307 531,308 531,309 530,310 530,313 529,314 529,318 528,319 528,337 529,338 529,342 530,343 530,346 532,348 532,349 533,350 533,351 535,353 535,354 537,356 538,356 541,359 542,359 543,360 544,360 545,361 547,361 548,362 550,362 552,364 557,364 558,365 565,365 566,366 570,366 571,365 578,365 579,364 584,364 585,363 586,363 587,362 589,362 590,361 591,361 592,360 595,360 597,358 598,358 600,356 601,356 603,354 604,354 606,352 607,352 614,345 614,344 618,340 618,339 620,337 620,336 622,334 622,333 623,332 623,331 624,330 624,329 626,327 626,325 627,324 628,324 629,325 629,326 628,327 629,328 629,336 630,337 630,365 628,367 627,367 625,369 624,369 621,372 620,372 617,375 617,376 614,379 614,380 612,382 612,383 611,384 611,385 610,386 610,387 609,388 609,390 608,391 608,392 607,393 607,395 606,396 606,399 607,400 607,401 605,403 598,403 596,401 596,399 595,398 595,397 592,394 591,394 590,393 588,393 587,392 581,392 580,393 578,393 577,394 576,394 575,395 569,389 568,389 567,388 566,388 565,387 560,387 559,386 558,387 554,387 553,388 552,388 551,389 550,389 549,390 548,390 547,391 547,392 544,395 543,394 542,394 541,393 538,393 537,392 530,392 524,398 524,399 522,401 522,402 521,403 515,403 514,402 515,401 515,398 516,397 516,396 517,395 517,391 518,390 518,376 517,375 517,359 518,358 518,353 519,352 519,347 520,346 520,344 521,343 521,342 522,341 522,338 520,336 519,337 516,337 515,338 514,338 513,339 512,339 510,341 509,341 508,342 507,342 506,343 505,343 504,344 503,344 502,345 501,345 500,346 499,346 498,347 496,347 495,348 494,347 493,348 491,348 490,349 489,349 488,350 487,350 486,351 484,351 483,352 482,352 481,353 479,353 478,354 477,354 475,356 474,356 472,358 471,358 469,360 468,360 467,359 467,357 468,356 468,355 470,353 470,351 471,350 471,349 472,348 472,345 473,344 473,341 474,340 474,324 473,323 473,321 472,320 472,318 471,317 471,316 470,315 470,314 468,312 466,312 465,311 464,311 461,308 461,307 460,306 460,305 459,304 459,303 460,302 461,303 463,303 464,304 465,304 466,305 467,304 468,305 481,305 482,304 485,304 486,303 487,303 488,302 489,302 490,301 491,301 493,299 494,299 501,292 502,292 515,279 515,273 514,272 514,271 513,270 512,270 511,269 506,269 505,270 504,270 503,271 500,271 499,272 492,272 491,271 488,271 487,270 486,270 485,269 484,269 483,268 482,268 481,267 478,267 477,266 476,266 475,265 472,265 471,264 463,264 462,263 465,260 465,259 467,257 467,255 468,254 468,252 469,251 469,248 470,247 470,232 469,231 469,229 468,228 468,225 467,224 467,222 464,219 464,218 458,212 457,212 455,210 454,210 452,208 451,208 450,207 449,207 448,206 443,206 441,208 441,209 440,210 440,211 438,213 438,214 432,220 430,220 428,222 427,222 424,225 423,225 421,223 421,221 420,220 420,219 419,218 419,217 416,214 415,214 414,213 413,213 411,211 411,210 410,209 410,205 409,204 409,202 408,201 408,200 407,199 407,198 403,194 402,194 401,193 400,193 399,192 393,192 392,193 392,196 393,197 393,198 394,199 394,207 393,208 393,212 392,213 392,216 391,217 391,220 390,221 390,223 389,224 389,227 387,229 387,233 386,234 386,235 385,236 385,238 384,239 384,242 383,243 383,255 384,256 384,259 385,260 385,262 386,263 386,265 388,267 386,269 384,269 383,270 382,270 381,271 379,271 378,272 377,272 375,274 374,274 373,275 372,275 371,276 370,276 368,278 367,278 364,281 363,281 362,282 361,282 360,283 359,283 358,284 356,284 355,285 349,285 348,284 347,284 346,283 342,283 341,284 339,284 339,285 338,286 338,291 339,292 339,293 340,293 341,294 342,294 345,297 346,297 348,299 349,299 350,300 351,300 353,302 354,302 357,305 358,305 361,308 362,308 363,309 364,309 365,310 366,310 367,311 368,311 369,312 370,312 371,313 375,313 376,314 379,314 380,315 386,315 387,316 387,337 386,338 387,339 387,340 386,341 386,348 387,349 387,350 386,351 387,352 387,359 386,360 387,361 386,362 383,362 382,361 380,361 379,360 377,360 376,359 365,359 364,358 358,358 357,357 356,357 350,351 349,351 348,350 348,349 346,347 345,347 340,342 340,340 339,339 339,338 338,337 338,336 337,335 337,334 333,330 333,329 332,329 327,324 326,324 325,323 324,323 323,322 322,322 321,321 319,321 318,320 316,320 315,319 311,319 310,318 306,318 305,317 300,317 299,316 289,316 288,317 288,322 289,323 289,324 291,326 291,327 292,328 292,329 294,331 294,332 302,340 303,340 305,342 306,342 307,343 308,343 309,344 310,344 311,345 313,345 314,346 316,346 318,348 319,348 321,350 321,352 322,353 322,356 323,357 323,362 324,363 324,366 325,367 325,370 326,371 326,375 327,376 327,384 328,385 328,389 329,390 329,392 330,393 331,393 332,394 332,395 331,396 331,397 329,399 329,400 326,403 315,403 314,404 313,404 312,405 311,405 308,408 308,410 307,411 307,414 306,415 306,417 305,418 302,418 301,419 298,419 297,420 296,420 292,424 292,426 291,427 291,429 290,430 290,439 288,441 287,441 286,442 285,442 283,444 282,444 282,445 280,447 280,449 279,450 279,455 280,456 280,458 281,459 281,461 282,462 281,463 280,463 279,462 278,462 276,460 275,460 274,459 273,459 272,458 259,458 258,459 257,459 255,461 254,461 249,466 249,467 247,469 247,472 246,473 246,483 247,484 247,486 248,487 248,489 251,492 251,493 252,494 253,494 256,497 257,497 258,498 261,498 262,499 271,499 272,498 273,498 274,497 275,497 276,496 277,496 279,494 280,495 280,498 279,499 279,506 280,507 280,509 281,510 281,511 282,511 284,513 284,514 285,515 289,515 290,516 290,525 291,526 291,530 296,535 297,535 298,536 300,536 301,537 303,537 306,540 306,542 307,543 307,546 309,548 309,549 311,551 312,551 313,552 315,552 316,553 326,553 328,555 328,557 332,561 332,562 333,563 337,563 338,564 343,564 344,563 347,563 349,561 350,561 351,562 351,563 352,564 353,564 356,567 357,567 358,568 359,568 360,569 369,569 370,568 371,568 372,567 373,567 374,566 375,566 380,561 382,563 385,563 386,564 392,564 393,563 396,563 400,559 400,558 401,557 401,556 404,553 413,553 414,552 417,552 419,550 419,549 420,548 421,548 421,547 422,546 422,545 423,544 423,542 424,541 424,539 425,538 426,538 427,537 431,537 432,536 433,536 436,533 436,532 437,531 438,531 438,530 439,529 439,526 440,525 440,516 441,515 443,515 444,514 445,514 449,510 449,508 450,507 450,499 449,498 449,496 448,495 448,494 449,493 450,494 451,494 453,496 454,496 455,497 456,497 457,498 467,498 468,497 470,497 471,496 472,496 475,493 476,494 476,495 475,496 475,497 474,498 474,507 475,508 475,510 479,514 480,514 481,515 483,515 485,517 485,527 486,528 486,530 488,532 488,533 491,536 493,536 494,537 498,537 501,540 501,543 502,544 502,546 503,547 503,548 506,551 507,551 508,552 510,552 511,553 521,553 522,554 522,555 523,556 523,558 526,561 526,562 527,562 528,563 531,563 532,564 537,564 538,563 541,563 542,562 543,562 544,561 550,567 551,567 552,568 554,568 555,569 564,569 565,568 567,568 568,567 569,567 574,562 576,562 577,563 581,563 582,564 587,564 588,563 591,563 595,559 595,558 596,557 596,555 598,553 608,553 609,552 611,552 612,551 613,551 615,549 615,548 616,547 616,546 617,545 617,544 618,543 618,541 619,540 619,539 620,538 622,538 623,537 626,537 628,535 629,535 633,531 633,528 634,527 634,517 636,515 638,515 639,514 640,514 643,511 643,510 644,509 644,507 645,506 645,499 644,498 644,496 643,495 643,494 644,493 645,493 648,496 649,496 650,497 652,497 653,498 663,498 664,497 666,497 670,493 671,493 672,492 673,493 673,495 672,496 672,497 671,498 671,507 672,508 672,509 673,510 673,511 676,514 677,514 678,515 680,515 682,517 682,519 681,520 681,524 682,525 682,528 683,529 683,531 687,535 689,535 690,536 692,536 693,537 695,537 697,539 697,543 698,544 698,545 699,546 699,547 701,549 701,550 702,550 703,551 704,551 705,552 707,552 708,553 718,553 719,554 719,555 720,556 720,557 721,558 721,559 724,562 726,562 727,563 728,563 729,564 734,564 735,563 739,563 741,561 747,567 748,567 749,568 751,568 752,569 760,569 761,568 762,568 763,567 764,567 765,566 766,566 769,563 770,563 772,561 773,562 774,562 775,563 778,563 779,564 783,564 784,563 787,563 788,562 789,562 791,560 791,559 793,557 793,555 795,553 806,553 807,552 808,552 809,551 810,551 811,550 811,549 813,547 813,545 814,544 814,543 815,542 815,539 816,538 818,538 819,537 822,537 823,536 825,536 828,533 828,532 829,531 829,530 830,529 830,528 831,527 831,517 833,515 835,515 837,513 838,513 839,512 839,511 841,509 841,496 842,495 844,497 845,497 846,498 849,498 850,499 858,499 859,498 861,498 862,497 863,497 864,496 865,496 871,490 871,489 872,488 872,486 873,485 873,480 874,479 874,476 873,475 873,472 872,471 872,468 870,466 870,465 867,462 866,462 863,459 860,459 859,458 849,458 848,459 847,458 846,459 845,459 843,461 842,461 841,462 840,461 840,460 841,459 841,448 840,447 840,445 837,442 835,442 834,441 833,441 831,439 831,429 830,428 830,426 824,420 822,420 821,419 818,419 815,416 815,412 814,411 814,410 812,408 812,407 811,407 808,404 808,403 813,398 813,395 814,394 814,392 815,391 815,387 816,386 816,373 815,372 815,359 814,358 814,347 813,346 813,328 812,327 812,319 811,318 811,315 810,314 810,310 809,309 809,305 808,304 808,303 802,303 801,304 801,305 800,306 799,306 795,310 794,310 792,312 791,312 789,314 788,314 786,316 785,316 782,319 781,319 771,329 771,330 769,332 769,333 767,335 761,329 760,329 758,327 758,326 761,323 761,322 762,321 762,319 763,318 763,311 762,310 762,308 761,307 761,305 760,304 760,301 759,300 759,289 758,288 758,287 757,286 757,285 756,284 755,284 752,281 751,281 750,280 747,280 746,279 739,279 738,280 736,280 735,279 735,277 736,276 736,275 737,274 737,272 738,271 738,269 740,267 740,266 743,263 744,263 747,260 748,260 753,255 753,254 755,252 755,251 756,250 756,249 757,248 757,246 759,244 759,242 761,240 761,239 762,238 762,237 766,233 766,232 769,229 769,228 770,227 770,223 769,222 769,221 768,220 766,220 765,219 763,219 762,218 759,218 758,217 749,217 748,218 745,218 744,219 743,219 742,220 739,220 738,221 737,221 736,222 735,222 734,223 732,223 731,224 725,224 724,225 721,225 720,226 718,226 717,227 715,227 714,228 712,228 711,229 710,229 709,230 708,230 706,232 705,232 703,234 702,234 699,237 698,237 694,241 694,242 693,243 692,242 692,239 693,238 693,220 692,219 692,208 691,207 691,197 690,196 690,179 689,178 689,172 688,171 688,167 687,166 687,164 686,163 686,159 685,158 685,157 684,156 684,154 682,152 682,150 679,147 678,147 677,146" stroke="black" stroke-width="1" /><polyline fill="none" points="331,119 331,122 332,123 332,124 333,125 333,126 334,127 334,128 335,129 335,131 337,133 337,134 339,136 339,137 340,138 340,139 342,141 342,142 344,144 344,145 346,147 346,148 349,151 349,152 353,156 353,157 354,158 355,158 356,157 356,156 355,155 355,153 353,151 353,149 352,148 352,147 351,146 351,145 349,143 349,142 348,141 348,140 347,139 347,138 344,135 344,134 342,132 342,131 340,129 340,128 339,127 339,126 336,123 336,122 334,120 333,120 332,119" stroke="black" stroke-width="1" /><polyline fill="none" points="535,111 534,112 522,112 521,113 508,113 507,114 502,114 501,115 496,115 495,116 490,116 489,117 485,117 484,118 479,118 478,119 476,119 475,120 472,120 471,121 470,120 469,121 466,121 465,122 463,122 462,123 460,123 459,124 456,124 455,125 452,125 451,126 449,126 448,127 446,127 445,128 443,128 442,129 440,129 439,130 437,130 436,131 434,131 433,132 432,132 431,133 429,133 428,134 426,134 425,135 423,135 422,136 421,136 420,137 418,137 417,138 415,138 413,140 412,140 411,141 409,141 407,143 406,143 405,144 402,144 401,145 400,145 398,147 397,147 396,148 394,148 393,149 392,149 390,151 389,151 388,152 387,152 386,153 385,153 383,155 382,155 381,156 380,156 379,157 378,157 376,159 375,159 374,160 373,160 370,163 369,163 368,164 367,164 366,165 365,165 362,168 361,168 357,172 356,172 354,174 353,174 351,176 350,176 345,181 344,181 336,189 335,189 335,190 333,192 332,192 323,201 323,202 320,205 319,205 319,206 316,209 316,210 313,213 312,213 312,214 308,218 308,219 306,221 306,222 303,225 303,226 300,229 300,230 297,233 297,234 296,235 296,236 295,237 295,238 292,241 292,242 290,244 290,245 289,246 289,247 287,249 287,250 284,253 284,255 283,256 283,257 281,259 281,260 280,261 280,262 279,263 279,264 277,266 277,267 276,268 276,269 275,270 275,271 273,273 273,274 272,275 272,276 271,277 271,278 270,279 270,280 269,281 268,281 268,285 267,286 267,287 266,288 266,289 265,290 265,292 264,293 264,295 263,296 263,299 262,300 262,301 261,302 261,304 260,305 260,308 259,309 259,312 258,313 258,315 257,316 257,319 256,320 256,325 255,326 255,330 254,331 254,335 253,336 253,340 252,341 252,348 251,349 251,350 252,351 251,352 252,353 251,354 251,369 250,370 250,384 251,385 251,386 253,388 254,387 255,388 258,388 261,385 261,382 262,381 262,361 263,360 263,351 264,350 264,344 265,343 265,336 266,335 266,332 267,331 267,328 268,327 268,324 269,323 269,318 270,317 270,315 271,314 271,312 272,311 272,309 273,308 273,305 274,304 274,302 275,301 275,300 276,299 276,296 277,295 277,292 278,291 278,289 279,288 279,286 280,285 280,282 281,281 281,278 282,277 282,276 283,275 283,273 284,272 284,270 285,269 285,267 286,266 286,265 287,264 287,263 288,262 288,261 289,260 289,259 290,258 290,257 291,256 291,255 292,254 292,253 294,251 294,250 296,248 296,247 297,246 297,245 300,242 300,240 302,238 302,237 304,235 304,234 305,233 306,233 306,232 308,230 308,229 310,227 310,226 313,223 313,222 317,218 317,217 321,213 321,212 323,210 324,210 327,207 327,206 340,193 341,193 345,189 345,188 346,187 347,187 352,182 353,182 357,178 358,178 360,176 361,176 364,173 365,173 368,170 369,170 372,167 373,167 375,165 376,165 378,163 379,163 381,161 382,161 384,159 385,159 386,158 387,158 388,157 389,157 391,155 392,155 393,154 394,154 396,152 397,152 398,151 399,151 400,150 401,150 402,149 403,149 404,148 405,148 406,147 407,147 409,145 411,145 412,144 413,144 415,142 416,142 417,141 419,141 420,140 421,140 422,139 423,139 424,138 426,138 427,137 428,137 429,136 431,136 432,135 433,135 434,134 435,134 436,133 438,133 439,132 441,132 442,131 445,131 446,130 448,130 449,129 451,129 452,128 455,128 456,127 457,127 458,126 461,126 462,125 465,125 466,124 470,124 471,123 473,123 474,122 478,122 479,121 483,121 484,120 485,120 486,121 487,120 489,120 490,119 496,119 497,118 501,118 502,117 507,117 508,116 509,116 510,117 511,117 512,116 515,116 516,115 517,116 518,116 519,115 531,115 532,114 574,114 575,115 587,115 587,113 586,113 585,112 568,112 567,111" stroke="black" stroke-width="1" /><polyline fill="none" points="410,106 409,107 409,111 410,112 410,115 412,117 412,118 413,119 413,120 414,121 414,122 415,123 417,123 417,121 416,120 416,118 415,117 415,114 414,113 414,112 412,110 412,109 411,108 411,107" stroke="black" stroke-width="1" /><polyline fill="none" points="526,77 526,88 527,89 527,94 527,93 528,92 529,93 529,94 529,91 530,90 530,81 529,80 529,78 528,77" stroke="black" stroke-width="1" /><polyline fill="none" points="583,69 582,70 582,74 581,75 581,80 580,81 580,85 579,86 579,95 578,96 578,102 579,101 580,102 580,99 581,98 581,96 582,95 582,92 583,91 583,83 584,82 584,71 583,70" stroke="black" stroke-width="1" /><polyline fill="none" points="471,65 471,71 472,72 472,80 473,81 473,87 474,88 474,92 475,93 475,96 476,97 476,99 477,100 477,103 478,102 479,102 479,97 478,96 478,89 477,88 477,84 476,83 476,78 475,77 475,72 474,71 474,69 473,68 473,65 472,66" stroke="black" stroke-width="1" /></svg>